<svg width="1024" height="1024" viewBox="0 0 1024 1024" xmlns="http://www.w3.org/2000/svg">
  <defs>
    <linearGradient id="bg" x1="0" y1="0" x2="1" y2="1">
      <stop offset="0" stop-color="#F4B12A"/>
      <stop offset="1" stop-color="#D9830B"/>
    </linearGradient>
    <!-- refined cream utensils -->
    <g id="fork">
      <rect x="-46" y="-300" width="14" height="104" rx="7"/>
      <rect x="-20" y="-300" width="14" height="104" rx="7"/>
      <rect x="6"   y="-300" width="14" height="104" rx="7"/>
      <rect x="32"  y="-300" width="14" height="104" rx="7"/>
      <path d="M -52 -214 L 52 -214 C 52 -182 44 -150 15 -150 L -15 -150 C -44 -150 -52 -182 -52 -214 Z"/>
      <path d="M -15 -150 L 15 -150 L 13 280 C 13 292 7 300 0 300 C -7 300 -13 292 -13 280 Z"/>
    </g>
    <g id="knife">
      <path d="M -15 -150 L 15 -150 L 13 280 C 13 292 7 300 0 300 C -7 300 -13 292 -13 280 Z"/>
      <path d="M 13 -150 L 20 -150 L 20 -262 C 20 -290 12 -306 -2 -306 C -12 -306 -19 -298 -19 -286 L -13 -150 Z"/>
    </g>
  </defs>

  <rect width="1024" height="1024" fill="url(#bg)"/>

  <!-- segmented plate ring (deep bronze) -->
  <g transform="translate(512 512)">
    <circle r="298" fill="none" stroke="#5C3D0A" stroke-width="16" stroke-linecap="round"
            pathLength="1000" stroke-dasharray="205 45" transform="rotate(-12)"/>
    <circle r="340" fill="none" stroke="#7A5212" stroke-width="8" stroke-linecap="round"
            pathLength="1000" stroke-dasharray="120 130" transform="rotate(20)" opacity="0.85"/>
  </g>

  <!-- cream crossed utensils -->
  <g transform="translate(512 512) scale(1.06)" fill="#F8EFD8">
    <use href="#fork" transform="rotate(-45)"/>
    <use href="#knife" transform="rotate(45)"/>
  </g>
</svg>
