<svg width="512" height="512" viewBox="0 0 512 512" xmlns="http://www.w3.org/2000/svg">
  <defs>
    <linearGradient id="bg" x1="0" y1="0" x2="1" y2="1">
      <stop offset="0" stop-color="#F4B12A"/>
      <stop offset="1" stop-color="#D9830B"/>
    </linearGradient>
    <g id="fork">
      <rect x="-46" y="-300" width="14" height="104" rx="7"/>
      <rect x="-20" y="-300" width="14" height="104" rx="7"/>
      <rect x="6"   y="-300" width="14" height="104" rx="7"/>
      <rect x="32"  y="-300" width="14" height="104" rx="7"/>
      <path d="M -52 -214 L 52 -214 C 52 -182 44 -150 15 -150 L -15 -150 C -44 -150 -52 -182 -52 -214 Z"/>
      <path d="M -15 -150 L 15 -150 L 13 280 C 13 292 7 300 0 300 C -7 300 -13 292 -13 280 Z"/>
    </g>
    <g id="knife">
      <path d="M -15 -150 L 15 -150 L 13 280 C 13 292 7 300 0 300 C -7 300 -13 292 -13 280 Z"/>
      <path d="M 13 -150 L 20 -150 L 20 -262 C 20 -290 12 -306 -2 -306 C -12 -306 -19 -298 -19 -286 L -13 -150 Z"/>
    </g>
  </defs>
  <rect x="56" y="56" width="400" height="400" rx="96" fill="url(#bg)"/>
  <g transform="translate(256 256)">
    <circle r="148" fill="none" stroke="#5C3D0A" stroke-width="9" stroke-linecap="round"
            pathLength="1000" stroke-dasharray="205 45" transform="rotate(-12)"/>
  </g>
  <g transform="translate(256 256) scale(0.5)" fill="#F8EFD8">
    <use href="#fork" transform="rotate(-45)"/>
    <use href="#knife" transform="rotate(45)"/>
  </g>
</svg>
